<svg xmlns="http://www.w3.org/2000/svg" xmlns:xlink="http://www.w3.org/1999/xlink" width="500" zoomAndPan="magnify" viewBox="0 0 375 374.999991" height="500" preserveAspectRatio="xMidYMid meet" version="1.0"><defs><clipPath id="2763ddb25d"><path d="M 89.863281 37.5 L 284.863281 37.5 L 284.863281 337.5 L 89.863281 337.5 Z M 89.863281 37.5 " clip-rule="nonzero"/></clipPath></defs><g clip-path="url(#2763ddb25d)"><path fill="#ffffff" d="M 209.402344 337.132812 L 149.632812 337.132812 C 148.652344 337.132812 147.679688 337.035156 146.71875 336.84375 C 145.757812 336.652344 144.820312 336.367188 143.914062 335.992188 C 143.007812 335.617188 142.148438 335.15625 141.332031 334.609375 C 140.515625 334.0625 139.761719 333.445312 139.066406 332.75 C 138.375 332.054688 137.753906 331.296875 137.210938 330.480469 C 136.664062 329.664062 136.203125 328.800781 135.828125 327.894531 C 135.453125 326.988281 135.167969 326.050781 134.976562 325.085938 C 134.785156 324.125 134.691406 323.152344 134.691406 322.167969 L 134.691406 232.390625 L 104.804688 232.390625 C 103.824219 232.390625 102.851562 232.292969 101.890625 232.101562 C 100.929688 231.910156 99.996094 231.625 99.085938 231.25 C 98.179688 230.875 97.320312 230.414062 96.503906 229.867188 C 95.6875 229.320312 94.933594 228.703125 94.238281 228.007812 C 93.546875 227.3125 92.925781 226.554688 92.382812 225.738281 C 91.835938 224.921875 91.375 224.058594 91 223.152344 C 90.625 222.246094 90.34375 221.308594 90.152344 220.34375 C 89.960938 219.382812 89.863281 218.410156 89.863281 217.425781 L 89.863281 157.574219 C 89.863281 156.589844 89.960938 155.617188 90.152344 154.65625 C 90.34375 153.691406 90.625 152.753906 91 151.847656 C 91.375 150.941406 91.835938 150.078125 92.382812 149.261719 C 92.925781 148.445312 93.546875 147.6875 94.238281 146.992188 C 94.933594 146.296875 95.6875 145.679688 96.503906 145.132812 C 97.320312 144.585938 98.179688 144.125 99.089844 143.75 C 99.996094 143.375 100.929688 143.089844 101.890625 142.898438 C 102.851562 142.707031 103.824219 142.609375 104.804688 142.609375 L 134.691406 142.609375 L 134.691406 127.648438 C 134.691406 126.179688 134.730469 124.710938 134.804688 123.242188 C 134.878906 121.777344 134.988281 120.3125 135.132812 118.851562 C 135.277344 117.390625 135.457031 115.929688 135.675781 114.480469 C 135.890625 113.027344 136.144531 111.578125 136.429688 110.140625 C 136.71875 108.699219 137.039062 107.265625 137.398438 105.839844 C 137.753906 104.417969 138.148438 103 138.574219 101.597656 C 139 100.191406 139.460938 98.796875 139.957031 97.414062 C 140.449219 96.03125 140.980469 94.664062 141.542969 93.304688 C 142.105469 91.949219 142.699219 90.605469 143.328125 89.277344 C 143.953125 87.953125 144.613281 86.640625 145.304688 85.34375 C 146 84.050781 146.722656 82.773438 147.476562 81.511719 C 148.230469 80.253906 149.015625 79.011719 149.832031 77.792969 C 150.644531 76.570312 151.492188 75.371094 152.363281 74.191406 C 153.238281 73.011719 154.140625 71.851562 155.070312 70.71875 C 156.003906 69.582031 156.960938 68.472656 157.945312 67.382812 C 158.929688 66.292969 159.941406 65.230469 160.980469 64.191406 C 162.015625 63.152344 163.078125 62.140625 164.164062 61.15625 C 165.25 60.167969 166.363281 59.207031 167.496094 58.277344 C 168.628906 57.34375 169.785156 56.441406 170.964844 55.566406 C 172.140625 54.691406 173.339844 53.84375 174.558594 53.027344 C 175.777344 52.210938 177.019531 51.425781 178.277344 50.671875 C 179.535156 49.914062 180.808594 49.191406 182.101562 48.496094 C 183.394531 47.804688 184.707031 47.144531 186.03125 46.515625 C 187.355469 45.886719 188.695312 45.289062 190.050781 44.726562 C 191.40625 44.164062 192.773438 43.636719 194.15625 43.140625 C 195.535156 42.644531 196.929688 42.183594 198.332031 41.753906 C 199.734375 41.328125 201.148438 40.9375 202.570312 40.578125 C 203.992188 40.21875 205.421875 39.898438 206.863281 39.609375 C 208.300781 39.320312 209.746094 39.070312 211.195312 38.851562 C 212.648438 38.636719 214.101562 38.453125 215.5625 38.308594 C 217.019531 38.164062 218.484375 38.054688 219.949219 37.980469 C 221.414062 37.90625 222.878906 37.871094 224.347656 37.867188 L 269.175781 37.867188 C 270.15625 37.867188 271.125 37.964844 272.089844 38.15625 C 273.050781 38.347656 273.984375 38.632812 274.890625 39.007812 C 275.796875 39.382812 276.660156 39.84375 277.476562 40.390625 C 278.292969 40.9375 279.046875 41.554688 279.738281 42.25 C 280.433594 42.945312 281.054688 43.703125 281.597656 44.519531 C 282.144531 45.335938 282.605469 46.199219 282.980469 47.105469 C 283.355469 48.011719 283.636719 48.949219 283.828125 49.914062 C 284.019531 50.875 284.117188 51.847656 284.117188 52.832031 L 284.117188 112.683594 C 284.117188 113.667969 284.019531 114.640625 283.828125 115.601562 C 283.636719 116.566406 283.355469 117.503906 282.980469 118.410156 C 282.605469 119.316406 282.144531 120.179688 281.597656 120.996094 C 281.054688 121.8125 280.433594 122.570312 279.738281 123.265625 C 279.046875 123.960938 278.292969 124.578125 277.476562 125.125 C 276.660156 125.671875 275.796875 126.132812 274.890625 126.507812 C 273.984375 126.882812 273.050781 127.167969 272.089844 127.359375 C 271.125 127.550781 270.15625 127.648438 269.175781 127.648438 L 224.347656 127.648438 L 224.347656 142.609375 L 269.175781 142.609375 C 269.738281 142.609375 270.304688 142.644531 270.867188 142.707031 C 271.429688 142.769531 271.984375 142.867188 272.535156 142.996094 C 273.085938 143.121094 273.628906 143.28125 274.164062 143.46875 C 274.695312 143.660156 275.21875 143.878906 275.726562 144.125 C 276.234375 144.375 276.726562 144.652344 277.203125 144.957031 C 277.679688 145.261719 278.140625 145.589844 278.578125 145.949219 C 279.019531 146.304688 279.4375 146.683594 279.832031 147.089844 C 280.230469 147.492188 280.601562 147.917969 280.949219 148.367188 C 281.296875 148.8125 281.621094 149.277344 281.914062 149.761719 C 282.210938 150.242188 282.476562 150.742188 282.71875 151.253906 C 282.957031 151.769531 283.164062 152.292969 283.34375 152.832031 C 283.523438 153.371094 283.671875 153.914062 283.789062 154.46875 C 283.90625 155.023438 283.992188 155.582031 284.046875 156.148438 C 284.101562 156.710938 284.121094 157.277344 284.113281 157.84375 C 284.101562 158.410156 284.058594 158.972656 283.984375 159.535156 C 283.910156 160.097656 283.804688 160.652344 283.667969 161.203125 L 268.726562 221.054688 C 268.523438 221.859375 268.257812 222.640625 267.929688 223.398438 C 267.597656 224.160156 267.207031 224.886719 266.757812 225.582031 C 266.304688 226.277344 265.800781 226.929688 265.242188 227.539062 C 264.683594 228.148438 264.078125 228.710938 263.425781 229.21875 C 262.773438 229.730469 262.082031 230.183594 261.355469 230.578125 C 260.628906 230.972656 259.875 231.304688 259.09375 231.574219 C 258.3125 231.84375 257.511719 232.046875 256.695312 232.183594 C 255.878906 232.320312 255.058594 232.390625 254.230469 232.390625 L 224.347656 232.390625 L 224.347656 322.167969 C 224.347656 323.152344 224.25 324.125 224.058594 325.085938 C 223.867188 326.050781 223.585938 326.988281 223.207031 327.894531 C 222.832031 328.800781 222.375 329.664062 221.828125 330.480469 C 221.28125 331.296875 220.664062 332.054688 219.96875 332.75 C 219.277344 333.445312 218.519531 334.0625 217.707031 334.609375 C 216.890625 335.15625 216.027344 335.617188 215.121094 335.992188 C 214.214844 336.367188 213.28125 336.652344 212.320312 336.84375 C 211.355469 337.035156 210.386719 337.132812 209.402344 337.132812 Z M 164.578125 307.207031 L 194.460938 307.207031 L 194.460938 217.425781 C 194.460938 216.445312 194.558594 215.472656 194.75 214.507812 C 194.941406 213.542969 195.222656 212.609375 195.597656 211.699219 C 195.972656 210.792969 196.433594 209.929688 196.980469 209.113281 C 197.523438 208.296875 198.144531 207.539062 198.835938 206.847656 C 199.53125 206.152344 200.285156 205.53125 201.101562 204.984375 C 201.917969 204.4375 202.777344 203.976562 203.6875 203.601562 C 204.59375 203.226562 205.527344 202.941406 206.488281 202.75 C 207.449219 202.558594 208.421875 202.464844 209.402344 202.464844 L 242.5625 202.464844 L 250.03125 172.535156 L 209.402344 172.535156 C 208.421875 172.535156 207.449219 172.441406 206.488281 172.25 C 205.527344 172.058594 204.59375 171.773438 203.6875 171.398438 C 202.777344 171.023438 201.917969 170.5625 201.101562 170.015625 C 200.285156 169.46875 199.53125 168.847656 198.835938 168.152344 C 198.144531 167.460938 197.523438 166.703125 196.980469 165.886719 C 196.433594 165.070312 195.972656 164.207031 195.597656 163.300781 C 195.222656 162.390625 194.941406 161.457031 194.75 160.492188 C 194.558594 159.527344 194.460938 158.554688 194.460938 157.574219 L 194.460938 127.648438 C 194.460938 126.667969 194.507812 125.6875 194.605469 124.714844 C 194.699219 123.738281 194.84375 122.769531 195.035156 121.808594 C 195.226562 120.847656 195.464844 119.898438 195.75 118.960938 C 196.03125 118.023438 196.363281 117.101562 196.734375 116.195312 C 197.109375 115.289062 197.527344 114.40625 197.988281 113.539062 C 198.453125 112.675781 198.953125 111.835938 199.496094 111.019531 C 200.042969 110.207031 200.625 109.417969 201.246094 108.664062 C 201.867188 107.90625 202.523438 107.179688 203.214844 106.484375 C 203.90625 105.792969 204.632812 105.136719 205.386719 104.515625 C 206.144531 103.890625 206.929688 103.308594 207.742188 102.765625 C 208.558594 102.21875 209.394531 101.714844 210.257812 101.253906 C 211.121094 100.792969 212.003906 100.375 212.910156 100 C 213.8125 99.625 214.734375 99.292969 215.671875 99.007812 C 216.609375 98.726562 217.554688 98.488281 218.515625 98.296875 C 219.476562 98.105469 220.441406 97.960938 221.417969 97.863281 C 222.390625 97.769531 223.367188 97.722656 224.347656 97.722656 L 254.230469 97.722656 L 254.230469 67.792969 L 224.347656 67.792969 C 222.390625 67.796875 220.4375 67.894531 218.488281 68.089844 C 216.542969 68.28125 214.609375 68.570312 212.691406 68.957031 C 210.769531 69.339844 208.875 69.816406 207.003906 70.386719 C 205.132812 70.957031 203.292969 71.617188 201.484375 72.367188 C 199.675781 73.121094 197.910156 73.957031 196.183594 74.882812 C 194.457031 75.804688 192.78125 76.8125 191.15625 77.902344 C 189.527344 78.992188 187.960938 80.15625 186.445312 81.402344 C 184.933594 82.644531 183.484375 83.960938 182.101562 85.34375 C 180.71875 86.730469 179.40625 88.179688 178.164062 89.695312 C 176.921875 91.210938 175.757812 92.78125 174.671875 94.410156 C 173.582031 96.039062 172.578125 97.71875 171.652344 99.445312 C 170.730469 101.175781 169.894531 102.941406 169.144531 104.753906 C 168.394531 106.5625 167.734375 108.40625 167.164062 110.28125 C 166.59375 112.15625 166.121094 114.054688 165.734375 115.976562 C 165.351562 117.898438 165.0625 119.832031 164.871094 121.78125 C 164.675781 123.734375 164.578125 125.6875 164.578125 127.648438 L 164.578125 157.574219 C 164.578125 158.554688 164.480469 159.527344 164.289062 160.492188 C 164.097656 161.457031 163.8125 162.390625 163.4375 163.300781 C 163.0625 164.207031 162.601562 165.070312 162.058594 165.886719 C 161.511719 166.703125 160.894531 167.460938 160.199219 168.152344 C 159.507812 168.847656 158.75 169.46875 157.933594 170.015625 C 157.121094 170.5625 156.257812 171.023438 155.351562 171.398438 C 154.445312 171.773438 153.511719 172.058594 152.550781 172.25 C 151.585938 172.441406 150.613281 172.535156 149.632812 172.535156 L 119.75 172.535156 L 119.75 202.464844 L 149.632812 202.464844 C 150.613281 202.464844 151.585938 202.558594 152.550781 202.75 C 153.511719 202.941406 154.445312 203.226562 155.351562 203.601562 C 156.257812 203.976562 157.121094 204.4375 157.933594 204.984375 C 158.75 205.53125 159.507812 206.152344 160.199219 206.847656 C 160.894531 207.539062 161.511719 208.296875 162.058594 209.113281 C 162.601562 209.929688 163.0625 210.792969 163.4375 211.699219 C 163.8125 212.609375 164.097656 213.542969 164.289062 214.507812 C 164.480469 215.472656 164.578125 216.445312 164.578125 217.425781 Z M 164.578125 307.207031 " fill-opacity="1" fill-rule="nonzero"/></g></svg>