<svg xmlns="http://www.w3.org/2000/svg" xmlns:xlink="http://www.w3.org/1999/xlink" width="500" zoomAndPan="magnify" viewBox="0 0 375 374.999991" height="500" preserveAspectRatio="xMidYMid meet" version="1.0"><defs><clipPath id="c9713ada45"><path d="M 37.5 62 L 337.5 62 L 337.5 313.875 L 37.5 313.875 Z M 37.5 62 " clip-rule="nonzero"/></clipPath></defs><g clip-path="url(#c9713ada45)"><path fill="#ffffff" d="M 141.890625 313.855469 C 111.660156 313.855469 55.117188 303.289062 39.605469 285.09375 C 37.96875 283.179688 37.515625 280.523438 38.421875 278.171875 C 39.328125 275.824219 41.449219 274.160156 43.949219 273.835938 C 48.222656 273.285156 52.164062 272.835938 55.972656 272.402344 C 67.640625 271.074219 77.71875 269.929688 89.796875 266.558594 C 96.695312 264.613281 101.695312 262.617188 106.355469 260.398438 C 99.722656 259.378906 92.597656 257.683594 85.96875 254.492188 C 72.152344 247.832031 63.417969 236.140625 60.011719 219.738281 C 59.601562 217.753906 60.085938 215.6875 61.34375 214.09375 C 62.597656 212.503906 64.492188 211.546875 66.519531 211.484375 L 67.695312 211.449219 C 70.703125 211.359375 75.058594 211.230469 79.53125 210.867188 C 60.769531 199.785156 45.050781 184.179688 46.148438 156.316406 C 46.230469 154.25 47.242188 152.328125 48.898438 151.089844 C 50.558594 149.851562 52.6875 149.425781 54.695312 149.933594 C 58.019531 150.777344 60.578125 151.617188 62.839844 152.355469 C 63.027344 152.414062 63.210938 152.476562 63.394531 152.535156 C 48.488281 133.554688 38.941406 116.035156 55.414062 80.53125 C 56.285156 78.65625 57.953125 77.277344 59.953125 76.769531 C 61.957031 76.261719 64.082031 76.683594 65.738281 77.914062 C 73.460938 83.664062 79.460938 89.246094 85.261719 94.648438 C 94.652344 103.390625 103.519531 111.644531 118.976562 119.804688 C 135.007812 128.296875 157.113281 134.695312 177.257812 136.855469 C 174.882812 100.164062 197.046875 76.90625 218.007812 67.835938 C 230.117188 62.59375 243.542969 61.117188 255.816406 63.679688 C 268.097656 66.242188 278.878906 72.625 287.207031 82.222656 C 296.308594 81.640625 303.171875 78.4375 310.992188 74.785156 C 314.144531 73.316406 317.398438 71.796875 320.875 70.4375 C 323.292969 69.492188 326.039062 69.992188 327.96875 71.730469 C 329.898438 73.46875 330.679688 76.148438 329.992188 78.648438 C 328.097656 85.53125 324.953125 90.875 321.511719 95.441406 C 322.035156 95.289062 322.554688 95.140625 323.074219 94.988281 L 328.269531 93.488281 C 330.898438 92.726562 333.722656 93.601562 335.464844 95.710938 C 337.207031 97.816406 337.527344 100.757812 336.285156 103.195312 C 329.710938 116.097656 322.269531 121.558594 316.835938 125.542969 C 311.410156 129.527344 309.160156 131.175781 308.570312 138.421875 C 304.859375 184.023438 288.261719 226.257812 261.839844 257.339844 C 232.703125 291.609375 193.257812 311.097656 147.773438 313.699219 C 145.953125 313.804688 143.984375 313.855469 141.890625 313.855469 Z M 64.585938 285.21875 C 86.335938 294.417969 124.425781 301.273438 146.996094 300 C 240.449219 294.65625 288.617188 214.4375 294.894531 137.308594 C 295.996094 123.820312 302.464844 119.070312 308.71875 114.480469 C 309.5 113.910156 310.28125 113.332031 311.070312 112.734375 C 308.734375 113.402344 306.398438 114.066406 304.070312 114.726562 C 301.296875 115.515625 298.328125 114.480469 296.640625 112.144531 C 294.949219 109.808594 294.902344 106.667969 296.515625 104.28125 C 299.121094 100.433594 302.015625 97.167969 304.816406 94.007812 C 305.554688 93.175781 306.277344 92.359375 306.980469 91.546875 C 300.441406 94.105469 293.207031 96.042969 284.210938 96.042969 C 284.144531 96.042969 284.078125 96.042969 284.011719 96.042969 C 281.894531 96.039062 279.894531 95.050781 278.601562 93.375 C 265.671875 76.609375 244.027344 71.53125 223.460938 80.429688 C 205.429688 88.234375 186.316406 109.371094 191.78125 143.257812 C 192.113281 145.304688 191.5 147.386719 190.121094 148.929688 C 188.738281 150.472656 186.734375 151.3125 184.667969 151.207031 C 160.707031 150.011719 132.402344 142.449219 112.5625 131.941406 C 95.503906 122.933594 85.542969 113.660156 75.910156 104.695312 C 72.289062 101.320312 68.585938 97.875 64.460938 94.40625 C 54.84375 120.261719 63.953125 131.5 79.363281 150.511719 C 81.28125 152.875 83.265625 155.320312 85.300781 157.910156 C 86.945312 159.996094 87.234375 162.84375 86.050781 165.21875 C 84.863281 167.59375 82.414062 169.070312 79.757812 169.011719 C 70.019531 168.796875 65.167969 167.519531 60.277344 165.953125 C 62.984375 185.050781 77.574219 195.585938 102.085938 207.117188 C 104.386719 208.199219 105.898438 210.460938 106.019531 213 C 106.140625 215.535156 104.851562 217.933594 102.664062 219.230469 C 96.246094 223.039062 86.015625 224.3125 75.785156 224.859375 C 83.152344 243.320312 100.421875 246.417969 120.402344 248.148438 C 124.503906 248.503906 128.042969 248.808594 131.109375 249.410156 C 134.019531 249.984375 136.230469 252.355469 136.597656 255.296875 C 136.960938 258.238281 135.398438 261.082031 132.722656 262.347656 C 128.433594 264.375 124.859375 266.269531 121.40625 268.101562 C 113.53125 272.28125 106.09375 276.222656 93.5 279.773438 C 82.941406 282.71875 74.035156 284.078125 64.585938 285.21875 Z M 64.585938 285.21875 " fill-opacity="1" fill-rule="nonzero"/></g></svg>