<svg xmlns="http://www.w3.org/2000/svg" xmlns:xlink="http://www.w3.org/1999/xlink" width="500" zoomAndPan="magnify" viewBox="0 0 375 374.999991" height="500" preserveAspectRatio="xMidYMid meet" version="1.0"><defs><clipPath id="ec97cc5323"><path d="M 34.507812 43.335938 L 322.507812 43.335938 L 322.507812 331.335938 L 34.507812 331.335938 Z M 34.507812 43.335938 " clip-rule="nonzero"/></clipPath></defs><g clip-path="url(#ec97cc5323)"><path fill="#ffffff" d="M 178.445312 69.300781 C 216.875 69.300781 221.417969 69.425781 236.625 70.121094 C 250.632812 70.753906 258.269531 73.085938 263.382812 75.105469 C 270.070312 77.695312 274.867188 80.847656 279.914062 85.898438 C 284.960938 90.945312 288.054688 95.742188 290.703125 102.429688 C 292.660156 107.476562 294.996094 115.113281 295.6875 129.183594 C 296.382812 144.394531 296.507812 148.9375 296.507812 187.367188 C 296.507812 225.796875 296.382812 230.339844 295.6875 245.546875 C 295.058594 259.554688 292.722656 267.191406 290.703125 272.300781 C 288.117188 278.992188 284.960938 283.785156 279.914062 288.835938 C 274.867188 293.882812 270.070312 296.976562 263.382812 299.625 C 258.332031 301.582031 250.699219 303.917969 236.625 304.609375 C 221.417969 305.304688 216.875 305.429688 178.445312 305.429688 C 140.015625 305.429688 135.472656 305.304688 120.265625 304.609375 C 106.253906 303.980469 98.621094 301.644531 93.507812 299.625 C 86.820312 297.039062 82.023438 293.882812 76.976562 288.835938 C 71.929688 283.785156 68.835938 278.992188 66.183594 272.300781 C 64.230469 267.253906 61.894531 259.617188 61.199219 245.546875 C 60.507812 230.339844 60.378906 225.796875 60.378906 187.367188 C 60.378906 148.9375 60.507812 144.394531 61.199219 129.183594 C 61.832031 115.175781 64.167969 107.542969 66.183594 102.429688 C 68.773438 95.742188 71.929688 90.945312 76.976562 85.898438 C 82.023438 80.847656 86.820312 77.757812 93.507812 75.105469 C 98.558594 73.152344 106.191406 70.816406 120.265625 70.121094 C 135.472656 69.425781 140.015625 69.300781 178.445312 69.300781 M 178.445312 43.367188 C 139.320312 43.367188 134.460938 43.554688 119.066406 44.25 C 103.730469 44.945312 93.257812 47.40625 84.105469 50.9375 C 74.640625 54.597656 66.628906 59.519531 58.613281 67.535156 C 50.664062 75.546875 45.738281 83.5625 42.082031 93.027344 C 38.546875 102.175781 36.085938 112.652344 35.390625 127.988281 C 34.699219 143.320312 34.507812 148.242188 34.507812 187.304688 C 34.507812 226.425781 34.699219 231.285156 35.390625 246.683594 C 36.085938 262.015625 38.546875 272.492188 42.082031 281.640625 C 45.738281 291.105469 50.664062 299.121094 58.675781 307.132812 C 66.691406 315.148438 74.703125 320.070312 84.167969 323.730469 C 93.320312 327.265625 103.792969 329.726562 119.128906 330.417969 C 134.460938 331.113281 139.382812 331.304688 178.507812 331.304688 C 217.632812 331.304688 222.492188 331.113281 237.886719 330.417969 C 253.222656 329.726562 263.695312 327.265625 272.847656 323.730469 C 282.3125 320.070312 290.324219 315.148438 298.339844 307.132812 C 306.355469 299.121094 311.277344 291.105469 314.9375 281.640625 C 318.46875 272.492188 320.929688 262.015625 321.625 246.683594 C 322.320312 231.347656 322.507812 226.425781 322.507812 187.304688 C 322.507812 148.179688 322.320312 143.320312 321.625 127.921875 C 320.929688 112.589844 318.46875 102.113281 314.9375 92.964844 C 311.277344 83.5 306.355469 75.484375 298.339844 67.472656 C 290.324219 59.457031 282.3125 54.535156 272.847656 50.875 C 263.695312 47.339844 253.222656 44.878906 237.886719 44.1875 C 222.492188 43.554688 217.570312 43.367188 178.445312 43.367188 " fill-opacity="1" fill-rule="nonzero"/></g><path fill="#ffffff" d="M 178.445312 113.410156 C 137.617188 113.410156 104.550781 146.476562 104.550781 187.304688 C 104.550781 228.128906 137.679688 261.257812 178.507812 261.257812 C 219.335938 261.257812 252.464844 228.191406 252.464844 187.304688 C 252.402344 146.476562 219.273438 113.410156 178.445312 113.410156 M 178.445312 235.324219 C 151.941406 235.324219 130.488281 213.867188 130.488281 187.367188 C 130.488281 160.863281 151.941406 139.40625 178.445312 139.40625 C 204.949219 139.40625 226.402344 160.863281 226.402344 187.367188 C 226.464844 213.804688 204.949219 235.324219 178.445312 235.324219 " fill-opacity="1" fill-rule="nonzero"/><path fill="#ffffff" d="M 272.59375 110.507812 C 272.59375 120.035156 264.832031 127.796875 255.304688 127.796875 C 245.773438 127.796875 238.015625 120.035156 238.015625 110.507812 C 238.015625 100.980469 245.773438 93.21875 255.304688 93.21875 C 264.832031 93.21875 272.59375 100.914062 272.59375 110.507812 " fill-opacity="1" fill-rule="nonzero"/></svg>